<?xml version="1.0" encoding="UTF-8" standalone="no"?>
<!DOCTYPE svg PUBLIC "-//W3C//DTD SVG 1.1//EN" "http://www.w3.org/Graphics/SVG/1.1/DTD/svg11.dtd">
<svg width="100%" height="100%" viewBox="0 0 3544 3544" version="1.1" xmlns="http://www.w3.org/2000/svg" xmlns:xlink="http://www.w3.org/1999/xlink" xml:space="preserve" xmlns:serif="http://www.serif.com/" style="fill-rule:evenodd;clip-rule:evenodd;stroke-linecap:round;stroke-linejoin:round;stroke-miterlimit:2;">
    <g transform="matrix(1,0,0,1,-7557.3,-7604.67)">
        <g transform="matrix(1,0,0,1,7557.3,7604.67)">
            <rect x="0" y="0" width="3543.31" height="3543.3" style="fill:rgb(32,72,132);"/>
        </g>
        <g id="WebApp" transform="matrix(1.00055,0,0,1.00055,7566.82,7621.07)">
            <rect x="-9.514" y="-16.396" width="3541.36" height="3541.36" style="fill:none;"/>
            <g transform="matrix(2.28994,0,0,2.28994,-10572.7,-1418.67)">
                <path d="M5387.13,803.795C5347.96,801.473 5253.81,811.695 5253.81,811.695C5258.73,811.695 5219.34,811.191 5199.79,838.585C5187.99,1042.24 5167.76,1317.86 5168.22,1356.69C5041.87,1410.9 5039.9,1397.7 5028.86,1434.06C5002.56,1520.72 4975.75,1857.46 4975.75,1857.46C4975.75,1857.46 5111.65,1858.95 5116.89,1858.53C5256.91,1890.71 5381.09,1891.17 5381.09,1891.17L5391.11,1891.17C5391.11,1891.17 5515.28,1890.71 5655.31,1858.53C5660.54,1858.95 5796.44,1857.46 5796.44,1857.46C5796.44,1857.46 5769.63,1520.72 5743.33,1434.06C5732.3,1397.7 5730.33,1410.9 5603.98,1356.69C5604.43,1317.86 5584.2,1042.24 5572.41,838.585C5552.86,811.191 5513.47,811.695 5518.39,811.695C5518.39,811.695 5428.4,804.542 5388.17,803.905" style="fill:rgb(63,119,202);"/>
            </g>
            <g transform="matrix(0.99945,0,0,0.99945,-7562.64,-3769.06)">
                <path d="M9301.75,4180.75C9311.66,4180.77 9321.57,4180.96 9331.46,4181.52L9333.9,4181.79C9376.96,4182.48 9420.01,4185.07 9463.11,4187.71C9519.76,4191.19 9576.37,4195.2 9632.99,4199.67C9632.99,4199.67 9634.7,4199.84 9636.46,4199.98C9685.07,4204.22 9733.68,4223.99 9763.39,4263.41C9764.07,4264.32 9764.74,4265.24 9765.41,4266.16L9766.95,4269.11L9767.6,4272.37C9787.09,4608.56 9811.88,4948.62 9831.99,5286.96C9835.28,5342.17 9839.33,5397.44 9839.96,5452.19L9839.96,5452.35C9904.7,5479.99 9970.34,5505.87 10036.1,5530.96C10060.8,5540.41 10086.1,5549.01 10109.4,5562.2C10122.8,5569.77 10134.8,5579.89 10142.7,5593.28C10154.3,5612.81 10159.7,5635.61 10165.2,5657.51C10179,5711.77 10188,5767.27 10196.5,5822.9C10217.7,5961.49 10233.1,6101.22 10247.3,6241.21C10259.7,6362.19 10270.9,6483.42 10280.7,6604.34L10280.9,6606.56C10280.8,6608.71 10280.6,6610.91 10279.7,6612.82C10278.2,6615.73 10275.5,6617.94 10272.4,6618.84C10271.4,6619.14 10270.3,6619.15 10269.3,6619.31C10167.1,6620.42 10064.8,6621.91 9963.11,6621.92C9957.77,6621.92 9952.44,6621.95 9947.1,6621.82L9946.85,6621.81C9777.41,6660.67 9603.07,6684.02 9427.98,6693.45C9379.75,6696.05 9331.84,6697.38 9282.7,6695.77C9161.88,6691.8 9041.2,6679.8 8921.65,6661.63C8851.16,6650.92 8781.09,6637.82 8711.38,6621.89C8711.38,6621.89 8704.12,6621.91 8698.27,6621.92C8595.96,6622.07 8494.02,6620.44 8392.14,6619.35L8388.64,6619.31C8385.85,6618.89 8384.99,6619.06 8382.52,6617.52C8379.82,6615.83 8377.81,6612.97 8377.18,6609.77C8376.8,6607.82 8377.03,6606.24 8377.18,6604.34C8393.69,6399.37 8412.96,6198.92 8437.78,5996.86C8448.73,5907.76 8460.36,5819.01 8477.02,5730.17C8483.84,5693.82 8491.35,5657.27 8502.69,5622.72C8509.09,5603.23 8517.85,5584.21 8534.94,5571.07C8552.14,5557.85 8573.11,5549.98 8593.17,5542.04C8636.74,5524.78 8680.82,5508.59 8724.36,5491.13C8755.7,5478.56 8786.89,5465.61 8817.94,5452.35C8818.33,5418.67 8820.41,5384.62 8822.27,5350.55C8832.15,5169.55 8844.88,4988.01 8856.77,4806.4C8868.43,4628.13 8879.97,4450.48 8890.29,4272.37L8890.95,4269.12L8892.48,4266.18C8915.26,4234.34 8952.19,4214.4 8989.52,4205.31C9000.91,4202.54 9012.55,4200.58 9024.19,4199.77C9024.19,4199.77 9027.59,4199.38 9030.01,4199.12C9107.23,4191.04 9185.05,4184.1 9262,4181.47C9275.24,4181.02 9288.52,4180.73 9301.75,4180.75Z" style="fill:rgb(63,119,202);stroke:rgb(57,105,175);stroke-width:135.19px;"/>
            </g>
            <g transform="matrix(1353.87,0,0,1353.87,1256.77,2642.08)">
                <g>
                    <path d="M0.728,-0.453C0.728,-0.45 0.728,-0.445 0.727,-0.44C0.726,-0.435 0.724,-0.427 0.721,-0.417L0.605,-0.023C0.603,-0.018 0.601,-0.013 0.599,-0.01C0.596,-0.007 0.592,-0.004 0.587,-0.002C0.581,0 0.574,0.001 0.564,0.002C0.554,0.003 0.541,0.003 0.525,0.003C0.509,0.003 0.496,0.003 0.486,0.002C0.476,0.001 0.468,0 0.462,-0.002C0.456,-0.004 0.452,-0.007 0.45,-0.01C0.447,-0.014 0.445,-0.018 0.444,-0.023L0.371,-0.288L0.37,-0.292L0.369,-0.288L0.301,-0.023C0.3,-0.018 0.298,-0.013 0.296,-0.01C0.293,-0.007 0.289,-0.004 0.283,-0.002C0.277,0 0.269,0.001 0.259,0.002C0.249,0.003 0.236,0.003 0.22,0.003C0.204,0.003 0.191,0.003 0.181,0.002C0.171,0.001 0.163,0 0.157,-0.002C0.152,-0.004 0.148,-0.007 0.145,-0.01C0.142,-0.014 0.14,-0.018 0.139,-0.023L0.024,-0.417C0.021,-0.427 0.019,-0.434 0.018,-0.44C0.017,-0.445 0.017,-0.45 0.017,-0.453C0.017,-0.456 0.018,-0.459 0.02,-0.462C0.022,-0.464 0.025,-0.466 0.03,-0.468C0.034,-0.469 0.041,-0.47 0.049,-0.471C0.057,-0.471 0.067,-0.472 0.079,-0.472C0.092,-0.472 0.102,-0.471 0.11,-0.471C0.118,-0.47 0.125,-0.469 0.129,-0.467C0.134,-0.466 0.137,-0.463 0.139,-0.461C0.141,-0.458 0.142,-0.455 0.143,-0.451L0.229,-0.131L0.23,-0.125L0.231,-0.131L0.313,-0.451C0.313,-0.455 0.315,-0.458 0.317,-0.461C0.319,-0.463 0.322,-0.466 0.327,-0.467C0.331,-0.469 0.337,-0.47 0.344,-0.471C0.352,-0.471 0.362,-0.472 0.374,-0.472C0.386,-0.472 0.396,-0.471 0.403,-0.47C0.411,-0.47 0.417,-0.469 0.421,-0.467C0.426,-0.466 0.429,-0.464 0.43,-0.461C0.432,-0.459 0.434,-0.456 0.435,-0.453L0.521,-0.13L0.523,-0.125L0.524,-0.131L0.607,-0.451C0.608,-0.455 0.609,-0.458 0.611,-0.461C0.613,-0.463 0.616,-0.466 0.621,-0.467C0.625,-0.469 0.631,-0.47 0.639,-0.471C0.647,-0.471 0.657,-0.472 0.669,-0.472C0.681,-0.472 0.691,-0.471 0.698,-0.471C0.706,-0.47 0.712,-0.469 0.717,-0.468C0.721,-0.466 0.724,-0.464 0.726,-0.462C0.727,-0.459 0.728,-0.456 0.728,-0.453Z" style="fill:rgb(32,72,132);fill-rule:nonzero;"/>
                </g>
            </g>
            <g transform="matrix(1,0,0,0.998308,20.1248,0.733066)">
                <g transform="matrix(0.99945,0,0,0.99945,-7552.66,-7616.88)">
                    <path d="M9147.63,8054.69L9136.29,9267.92" style="fill:none;stroke:rgb(57,105,175);stroke-width:75.9px;stroke-miterlimit:1.5;"/>
                </g>
                <g transform="matrix(-0.99945,0,0,0.99945,11034.7,-7616.88)">
                    <path d="M9147.63,8054.69L9136.29,9267.92" style="fill:none;stroke:rgb(57,105,175);stroke-width:75.99px;stroke-miterlimit:1.5;"/>
                </g>
            </g>
        </g>
    </g>
</svg>
