<?xml version="1.0" encoding="UTF-8" standalone="no"?>
<!DOCTYPE svg PUBLIC "-//W3C//DTD SVG 1.1//EN" "http://www.w3.org/Graphics/SVG/1.1/DTD/svg11.dtd">
<svg width="100%" height="100%" viewBox="0 0 150 150" version="1.1" xmlns="http://www.w3.org/2000/svg" xmlns:xlink="http://www.w3.org/1999/xlink" xml:space="preserve" xmlns:serif="http://www.serif.com/" style="fill-rule:evenodd;clip-rule:evenodd;stroke-linejoin:round;stroke-miterlimit:2;">
    <g id="Artboard2" transform="matrix(0.75,0,0,1,-149.25,0)">
        <rect x="199" y="0" width="200" height="150" style="fill:none;"/>
        <g transform="matrix(0.988875,0,0,0.376884,-301.685,-142.462)">
            <g id="Artboard1">
                <g transform="matrix(0.337084,0,0,2.65334,506.318,378)">
                    <rect x="0" y="0" width="600" height="150"/>
                </g>
                <g transform="matrix(1.34833,0,0,2.65333,-198.906,-1014.99)">
                    <path d="M569.786,636.821L626.286,636.821L626.286,624.321L569.786,624.321L569.786,636.821ZM598.036,563.172L610.251,576.644C610.251,576.644 609.324,578.126 608.348,579.688C606.967,581.897 606.89,584.681 608.145,586.964C608.155,586.982 608.165,587 608.175,587.018C609.494,589.416 612.062,590.855 614.795,590.728C617.529,590.601 619.953,588.931 621.044,586.421C621.044,586.419 621.045,586.418 621.046,586.416C622.454,583.179 621.28,579.398 618.286,577.527C617.461,577.011 616.873,576.644 616.873,576.644L648.329,565.883L626.143,621.988C626.143,621.988 626.026,621.989 625.808,621.991C614.326,622.103 603.69,615.968 598.036,605.974L598.035,605.974C592.381,615.968 581.745,622.103 570.263,621.991C570.046,621.989 569.928,621.988 569.928,621.988L547.742,565.883L579.198,576.644C579.198,576.644 578.61,577.011 577.785,577.527C574.791,579.398 573.618,583.179 575.025,586.416C575.026,586.418 575.027,586.419 575.027,586.421C576.118,588.931 578.542,590.601 581.276,590.728C584.009,590.855 586.577,589.416 587.896,587.018C587.906,587 587.916,586.982 587.926,586.964C589.181,584.681 589.104,581.897 587.723,579.688C586.747,578.126 585.82,576.644 585.82,576.644L598.036,563.172Z" style="fill:rgb(182,110,77);"/>
                </g>
            </g>
        </g>
    </g>
</svg>
