<?xml version="1.0" encoding="UTF-8" standalone="no"?>
<!DOCTYPE svg PUBLIC "-//W3C//DTD SVG 1.1//EN" "http://www.w3.org/Graphics/SVG/1.1/DTD/svg11.dtd">
<svg width="100%" height="100%" viewBox="0 0 600 150" version="1.1" xmlns="http://www.w3.org/2000/svg" xmlns:xlink="http://www.w3.org/1999/xlink" xml:space="preserve" xmlns:serif="http://www.serif.com/" style="fill-rule:evenodd;clip-rule:evenodd;stroke-linejoin:round;stroke-miterlimit:2;">
    <g id="Artboard1" transform="matrix(0.741656,0,0,0.376884,-176.514,-142.462)">
        <g transform="matrix(1.34833,0,0,2.65334,238,378)">
            <rect x="0" y="0" width="600" height="150" style="fill:rgb(250,235,215);"/>
        </g>
        <g transform="matrix(1.34833,0,0,2.65333,-166.5,-1015)">
            <path d="M355.049,599.74C355.586,577.944 372.388,563.172 393.294,563.172C399.401,563.172 404.996,564.962 404.996,564.962L405.535,563.997L418.237,563.997L411.178,578.617C407.352,574.46 402.768,571.24 396.266,571.24C390.107,571.24 388.185,572.729 384.471,575.934C378.747,580.874 375.996,589.243 375.996,599.997L375.997,600.248C376.039,610.881 378.792,619.158 384.471,624.059C388.185,627.265 390.107,628.754 396.266,628.754C402.768,628.754 407.352,625.533 411.178,621.376L418.096,621.297L417.996,635.997L411.196,635.997L409.092,635.533C409.092,635.533 403.614,636.937 393.294,636.821C372.307,636.587 355.455,621.933 355.043,599.997L355.049,599.74ZM440.187,636.821L440.187,570.588L445.545,570.588C451.417,570.588 455.289,572.19 457.652,574.753C459.996,577.294 460.826,580.699 460.826,584.087C460.826,587.72 459.794,590.541 457.817,592.596C454.908,595.619 450.121,596.975 444.115,597.139L444.115,607.197L460.536,636.821L480.471,636.821L461.115,607.197C471.724,605.282 478.748,596.476 478.748,585.593C478.748,573.303 470.538,563.172 455.918,563.172L422.283,563.172L414.996,578.997L422.196,578.997L422.283,636.821L440.187,636.821ZM737.859,636.821L737.859,570.588L743.218,570.588C749.089,570.588 752.961,572.19 755.325,574.753C757.668,577.294 758.498,580.699 758.498,584.087C758.498,587.72 757.467,590.541 755.489,592.596C752.58,595.619 747.794,596.975 741.787,597.139L741.787,607.197L758.208,636.821L778.143,636.821L758.787,607.197C769.396,605.282 776.421,596.476 776.421,585.593C776.421,573.303 768.21,563.172 753.591,563.172L719.956,563.172L712.668,578.997L719.868,578.997L719.956,636.821L737.859,636.821ZM550.619,600.003C550.619,579.295 535.942,563.172 515.433,563.172C495.14,563.172 480.471,579.292 480.471,600.003C480.471,620.499 495.139,636.821 515.433,636.821C535.942,636.821 550.619,620.496 550.619,600.003ZM714.76,600.003C714.76,579.295 700.083,563.172 679.575,563.172C659.281,563.172 644.612,579.292 644.612,600.003C644.612,620.499 659.281,636.821 679.575,636.821C700.083,636.821 714.76,620.496 714.76,600.003ZM569.786,636.821L626.286,636.821L626.286,624.321L569.786,624.321L569.786,636.821ZM834.927,563.192L834.822,563.192L834.889,607.477L799.484,563.172L784.209,563.172L784.209,636.821L794.222,636.821L794.222,584.753L835.752,636.821L844.957,636.821L844.957,563.179L834.927,563.192L834.933,563.179L844.957,563.179L844.957,563.172L834.927,563.172L834.927,563.192ZM533.365,600.003C533.365,606.177 532.503,613.532 529.679,619.339C527.045,624.751 522.64,628.767 515.433,628.767C508.235,628.767 503.881,624.756 501.297,619.35C498.52,613.541 497.708,606.181 497.708,600.003C497.708,593.826 498.52,586.466 501.297,580.656C503.881,575.25 508.235,571.239 515.433,571.239C522.64,571.239 527.045,575.256 529.679,580.668C532.503,586.474 533.365,593.83 533.365,600.003ZM697.506,600.003C697.506,606.177 696.645,613.532 693.82,619.339C691.187,624.751 686.781,628.767 679.575,628.767C672.377,628.767 668.022,624.756 665.438,619.35C662.661,613.541 661.85,606.181 661.85,600.003C661.85,593.826 662.661,586.466 665.438,580.656C668.022,575.25 672.377,571.239 679.575,571.239C686.781,571.239 691.187,575.256 693.82,580.668C696.645,586.474 697.506,593.83 697.506,600.003ZM598.036,563.172L610.251,576.644C610.251,576.644 609.324,578.126 608.348,579.688C606.967,581.897 606.89,584.681 608.145,586.964C608.155,586.982 608.165,587 608.175,587.018C609.494,589.416 612.062,590.855 614.795,590.728C617.529,590.601 619.953,588.931 621.044,586.421C621.044,586.419 621.045,586.418 621.046,586.416C622.454,583.179 621.28,579.398 618.286,577.527C617.461,577.011 616.873,576.644 616.873,576.644L648.329,565.883L626.143,621.988C626.143,621.988 626.026,621.989 625.808,621.991C614.326,622.103 603.69,615.968 598.036,605.974L598.035,605.974C592.381,615.968 581.745,622.103 570.263,621.991C570.046,621.989 569.928,621.988 569.928,621.988L547.742,565.883L579.198,576.644C579.198,576.644 578.61,577.011 577.785,577.527C574.791,579.398 573.618,583.179 575.025,586.416C575.026,586.418 575.027,586.419 575.027,586.421C576.118,588.931 578.542,590.601 581.276,590.728C584.009,590.855 586.577,589.416 587.896,587.018C587.906,587 587.916,586.982 587.926,586.964C589.181,584.681 589.104,581.897 587.723,579.688C586.747,578.126 585.82,576.644 585.82,576.644L598.036,563.172Z" style="fill:rgb(182,110,77);"/>
        </g>
    </g>
</svg>
