<?xml version="1.0" encoding="UTF-8" standalone="no"?>
<!DOCTYPE svg PUBLIC "-//W3C//DTD SVG 1.1//EN" "http://www.w3.org/Graphics/SVG/1.1/DTD/svg11.dtd">
<svg width="100%" height="100%" viewBox="0 0 2550 1275" version="1.1" xmlns="http://www.w3.org/2000/svg" xmlns:xlink="http://www.w3.org/1999/xlink" xml:space="preserve" xmlns:serif="http://www.serif.com/" style="fill-rule:evenodd;clip-rule:evenodd;stroke-linecap:round;stroke-linejoin:round;stroke-miterlimit:1.5;">
    <g transform="matrix(0.82549,0,0,0.82549,-678.298,139.324)">
        <g id="Artboard2">
            <path d="M3401.23,-693.682L3401.23,206.475C3401.23,518.932 3224.32,804.45 2944.53,943.545C2761.48,1034.55 2550.98,1139.19 2367.93,1230.19C2088.14,1369.29 1911.23,1654.81 1911.23,1967.27L1911.23,2406.54L1891.23,2386.54L1891.23,1947.27C1891.23,1634.81 2068.14,1349.29 2347.93,1210.19C2530.98,1119.19 2741.48,1014.55 2924.53,923.545C3204.32,784.45 3381.23,498.932 3381.23,186.475L3381.23,-713.682L3361.23,-733.682L3361.23,166.475C3361.23,478.932 3184.32,764.45 2904.53,903.545C2721.48,994.545 2510.98,1099.19 2327.93,1190.19C2048.14,1329.29 1871.23,1614.81 1871.23,1927.27L1871.23,2366.54L1851.23,2346.54L1851.23,1907.27C1851.23,1594.81 2028.14,1309.29 2307.93,1170.19C2490.98,1079.19 2701.48,974.545 2884.53,883.545C3164.32,744.45 3341.23,458.932 3341.23,146.475L3341.23,-753.682L3001.23,-548.682L3001.23,-193.525C3001.23,118.932 2824.32,404.45 2544.53,543.545C2361.48,634.545 2150.98,739.195 1967.93,830.195C1688.14,969.29 1511.23,1254.81 1511.23,1567.27L1511.23,2006.54L1531.23,2026.54L1531.23,1587.27C1531.23,1274.81 1708.14,989.29 1987.93,850.195C2170.98,759.195 2381.48,654.545 2564.53,563.545C2844.32,424.45 3021.23,138.932 3021.23,-173.525L3021.23,-528.682L3161.23,-388.682L3161.23,-33.525C3161.23,278.932 2984.32,564.45 2704.53,703.545C2521.48,794.545 2310.98,899.195 2127.93,990.195C1848.14,1129.29 1671.23,1414.81 1671.23,1727.27L1671.23,2166.54L1691.23,2186.54L1691.23,1747.27C1691.23,1434.81 1868.14,1149.29 2147.93,1010.2C2330.98,919.195 2541.48,814.545 2724.53,723.545C3004.32,584.45 3181.23,298.932 3181.23,-13.525L3181.23,-368.682L3201.23,-348.682L3201.23,6.475C3201.23,318.932 3024.32,604.45 2744.53,743.545C2561.48,834.545 2350.98,939.195 2167.93,1030.19C1888.14,1169.29 1711.23,1454.81 1711.23,1767.27L1711.23,2206.54L1731.23,2226.54L1731.23,1787.27C1731.23,1474.81 1908.14,1189.29 2187.93,1050.19C2370.98,959.195 2581.48,854.545 2764.53,763.545C3044.32,624.45 3221.23,338.932 3221.23,26.475L3221.23,-328.682L3241.23,-853.682L3241.23,46.475C3241.23,358.932 3064.32,644.45 2784.53,783.545C2601.48,874.545 2390.98,979.195 2207.93,1070.19C1928.14,1209.29 1751.23,1494.81 1751.23,1807.27L1751.23,2246.54L1771.23,2266.54L1771.23,1827.27C1771.23,1514.81 1948.14,1229.29 2227.93,1090.19C2410.98,999.195 2621.48,894.545 2804.53,803.545C3084.32,664.45 3261.23,378.932 3261.23,66.475L3261.23,-833.682L3281.23,-813.682L3281.23,86.475C3281.23,398.932 3104.32,684.45 2824.53,823.545C2641.48,914.545 2430.98,1019.2 2247.93,1110.19C1968.14,1249.29 1791.23,1534.81 1791.23,1847.27L1791.23,2286.54L1811.23,2306.54L1811.23,1867.27C1811.23,1554.81 1988.14,1269.29 2267.93,1130.19C2450.98,1039.19 2661.48,934.545 2844.53,843.545C3124.32,704.45 3301.23,418.932 3301.23,106.475L3301.23,-793.682L3321.23,-773.682L3321.23,126.475C3321.23,438.932 3144.32,724.45 2864.53,863.545C2681.48,954.545 2470.98,1059.19 2287.93,1150.19C2008.14,1289.29 1831.23,1574.81 1831.23,1887.27L1831.23,2326.54L1931.23,2426.54L1931.23,1987.27C1931.23,1674.81 2108.14,1389.29 2387.93,1250.19C2570.98,1159.19 2781.48,1054.55 2964.53,963.545C3244.32,824.45 3421.23,538.932 3421.23,226.475L3421.23,-673.682L3441.23,-653.682L3441.23,246.475C3441.23,558.932 3264.32,844.45 2984.53,983.545C2801.48,1074.55 2590.98,1179.19 2407.93,1270.19C2128.14,1409.29 1951.23,1694.81 1951.23,2007.27L1951.23,2446.54L1971.23,2466.54L1971.23,2027.27C1971.23,1714.81 2148.14,1429.29 2427.93,1290.19C2610.98,1199.19 2821.48,1094.55 3004.53,1003.55C3284.32,864.45 3461.23,578.932 3461.23,266.475L3461.23,-633.682L3481.23,-613.682L3481.23,286.475C3481.23,598.932 3304.32,884.45 3024.53,1023.55C2841.48,1114.55 2630.98,1219.19 2447.93,1310.19C2168.14,1449.29 1991.23,1734.81 1991.23,2047.27L1991.23,2486.54L2011.23,2506.54L2011.23,2067.26C2011.23,1754.81 2188.14,1469.29 2467.93,1330.19C2650.98,1239.19 2861.48,1134.55 3044.53,1043.55C3324.32,904.45 3501.23,618.932 3501.23,306.475L3501.23,-593.682L3521.23,-573.682L3521.23,326.475C3521.23,638.932 3344.32,924.45 3064.53,1063.55C2881.48,1154.55 2670.98,1259.19 2487.93,1350.19C2208.14,1489.29 2031.23,1774.81 2031.23,2087.26L2031.23,2526.54L2051.23,2546.54L2051.23,2107.26C2051.23,1794.81 2228.14,1509.29 2507.93,1370.19C2690.98,1279.19 2901.48,1174.55 3084.53,1083.55C3364.32,944.45 3541.23,658.932 3541.23,346.475L3541.23,-553.682L3561.23,-533.682L3561.23,366.475C3561.23,678.932 3384.32,964.45 3104.53,1103.55C2921.48,1194.55 2710.98,1299.19 2527.93,1390.19C2248.14,1529.29 2071.23,1814.81 2071.23,2127.26L2071.23,2566.54L2091.23,2586.54L2091.23,2147.26C2091.23,1834.81 2268.14,1549.29 2547.93,1410.19C2730.98,1319.19 2941.48,1214.55 3124.53,1123.55C3404.32,984.45 3581.23,698.932 3581.23,386.475L3581.23,-513.682L3601.23,-493.682L3601.23,406.475C3601.23,718.932 3424.32,1004.45 3144.53,1143.55C2961.48,1234.55 2750.98,1339.19 2567.93,1430.19C2288.14,1569.29 2111.23,1854.81 2111.23,2167.26L2111.23,2606.54L2131.23,2626.54L2131.23,2187.26C2131.23,1874.81 2308.14,1589.29 2587.93,1450.19C2770.98,1359.19 2981.48,1254.55 3164.53,1163.55C3444.32,1024.45 3621.23,738.932 3621.23,426.475L3621.23,-473.682L3641.23,-453.682L3641.23,446.475C3641.23,758.932 3464.32,1044.45 3184.53,1183.55C3001.48,1274.55 2790.98,1379.19 2607.93,1470.19C2328.14,1609.29 2151.23,1894.81 2151.23,2207.26L2151.23,2646.54L1651.23,2146.54L1651.23,1707.27C1651.23,1394.81 1828.14,1109.29 2107.93,970.195C2290.98,879.195 2501.48,774.545 2684.53,683.545C2964.32,544.45 3141.23,258.932 3141.23,-53.525L3141.23,-408.682L3121.23,-428.682L3121.23,-73.525C3121.23,238.932 2944.32,524.45 2664.53,663.545C2481.48,754.545 2270.98,859.195 2087.93,950.195C1808.14,1089.29 1631.23,1374.81 1631.23,1687.27L1631.23,2126.54L1611.23,2106.54L1611.23,1667.27C1611.23,1354.81 1788.14,1069.29 2067.93,930.195C2250.98,839.195 2461.48,734.545 2644.53,643.545C2924.32,504.45 3101.23,218.932 3101.23,-93.525L3101.23,-448.682L3081.23,-468.682L3081.23,-113.525C3081.23,198.932 2904.32,484.45 2624.53,623.545C2441.48,714.545 2230.98,819.195 2047.93,910.195C1768.14,1049.29 1591.23,1334.81 1591.23,1647.27L1591.23,2086.54L1571.23,2066.54L1571.23,1627.27C1571.23,1314.81 1748.14,1029.29 2027.93,890.195C2210.98,799.195 2421.48,694.545 2604.53,603.545C2884.32,464.45 3061.23,178.932 3061.23,-133.525L3061.23,-488.682L3041.23,-508.682L3041.23,-153.525C3041.23,158.932 2864.32,444.45 2584.53,583.545C2401.48,674.545 2190.98,779.195 2007.93,870.195C1728.14,1009.29 1551.23,1294.81 1551.23,1607.27L1551.23,2046.54L1491.23,1986.54L1491.23,1547.27C1491.23,1234.81 1668.14,949.29 1947.93,810.195C2130.98,719.195 2341.48,614.545 2524.53,523.545C2804.32,384.45 2981.23,98.932 2981.23,-213.525L2981.23,-568.682L2961.23,-588.682L2961.23,-233.525C2961.23,78.932 2784.32,364.45 2504.53,503.545C2321.48,594.545 2110.98,699.195 1927.93,790.195C1648.14,929.29 1471.23,1214.81 1471.23,1527.27L1471.23,1966.54L1451.23,1946.54L1451.23,1507.26C1451.23,1194.81 1628.14,909.287 1907.93,770.192C2090.98,679.193 2301.48,574.544 2484.53,483.545C2764.32,344.45 2941.23,58.932 2941.23,-253.526L2941.23,-608.682L2921.23,-628.682L2921.23,-273.526C2921.23,38.932 2744.32,324.45 2464.53,463.545C2281.48,554.544 2070.98,659.193 1887.93,750.192C1608.14,889.287 1431.23,1174.81 1431.23,1487.26L1431.23,1926.54L1411.23,1906.54L1411.23,1467.26C1411.23,1154.81 1588.14,869.287 1867.93,730.192C2050.98,639.193 2261.48,534.544 2444.53,443.545C2724.32,304.45 2901.23,18.932 2901.23,-293.526L2901.23,-648.682L2881.23,-668.682L2881.23,-313.526C2881.23,-1.068 2704.32,284.45 2424.53,423.545C2241.48,514.544 2030.98,619.193 1847.93,710.192C1568.14,849.287 1391.23,1134.81 1391.23,1447.26L1391.23,1886.54L1371.23,1866.54L1371.23,1427.26C1371.23,1114.81 1548.14,829.287 1827.93,690.192C2010.98,599.193 2221.48,494.544 2404.53,403.545C2684.32,264.45 2861.23,-21.068 2861.23,-333.526L2861.23,-688.682L2841.23,-708.682L2841.23,-353.526C2841.23,-41.068 2664.32,244.45 2384.53,383.545C2201.48,474.544 1990.98,579.193 1807.93,670.192C1528.14,809.287 1351.23,1094.81 1351.23,1407.26L1351.23,1846.54L1331.23,1826.54L1331.23,1387.26C1331.23,1074.81 1508.14,789.287 1787.93,650.192C1970.98,559.193 2181.48,454.544 2364.53,363.545C2644.32,224.45 2821.23,-61.068 2821.23,-373.526L2821.23,-728.682L2801.23,-748.682L2801.23,-393.526C2801.23,-81.068 2624.32,204.45 2344.53,343.545C2161.48,434.544 1950.98,539.193 1767.93,630.192C1488.14,769.287 1311.23,1054.81 1311.23,1367.26L1311.23,1806.54L1291.23,1786.54L1291.23,1347.26C1291.23,1034.81 1468.14,749.287 1747.93,610.192C1930.98,519.193 2141.48,414.544 2324.53,323.545C2604.32,184.45 2781.23,-101.068 2781.23,-413.526L2781.23,-768.682L2761.23,-788.682L2761.23,-433.526C2761.23,-121.068 2584.32,164.45 2304.53,303.545C2121.48,394.544 1910.98,499.193 1727.93,590.192C1448.14,729.287 1271.23,1014.81 1271.23,1327.26L1271.23,1766.54L1251.23,1746.54L1251.23,1307.26C1251.23,994.805 1428.14,709.287 1707.93,570.192C1890.98,479.193 2101.48,374.544 2284.53,283.545C2564.32,144.45 2741.23,-141.068 2741.23,-453.526L2741.23,-808.682L2721.23,-828.682L2721.23,-473.526C2721.23,-161.068 2544.32,124.45 2264.53,263.545C2081.48,354.544 1870.98,459.193 1687.93,550.192C1408.14,689.287 1231.23,974.805 1231.23,1287.26L1231.23,1726.54L1211.23,1706.54L1211.23,1267.26C1211.23,954.805 1388.14,669.287 1667.93,530.192C1850.98,439.193 2061.48,334.544 2244.53,243.545C2524.32,104.45 2701.23,-181.068 2701.23,-493.526L2701.23,-848.682L2681.23,-868.682L2681.23,-513.526C2681.23,-201.068 2504.32,84.45 2224.53,223.545C2041.48,314.544 1830.98,419.193 1647.93,510.192C1368.14,649.287 1191.23,934.805 1191.23,1247.26L1191.23,1686.54L1171.23,1666.54L1171.23,1227.26C1171.23,914.805 1348.14,629.287 1627.93,490.192C1810.98,399.193 2021.48,294.544 2204.53,203.545C2484.32,64.45 2661.23,-221.068 2661.23,-533.526L2661.23,-888.682L2641.23,-908.682L2641.23,-553.526C2641.23,-241.068 2464.32,44.45 2184.53,183.545C2001.48,274.544 1790.98,379.193 1607.93,470.192C1328.14,609.287 1151.23,894.805 1151.23,1207.26L1151.23,1646.54L1131.23,1626.54L1131.23,1187.26C1131.23,874.805 1308.14,589.287 1587.93,450.192C1770.98,359.193 1981.48,254.544 2164.53,163.545C2444.32,24.45 2621.23,-261.068 2621.23,-573.526L2621.23,-928.682L2601.23,-948.682L2601.23,-593.526C2601.23,-281.068 2424.32,4.45 2144.53,143.545C1961.48,234.544 1750.98,339.193 1567.93,430.192C1288.14,569.287 1111.23,854.805 1111.23,1167.26L1111.23,1606.54L1091.23,1586.54L1091.23,1147.26C1091.23,834.805 1268.14,549.287 1547.93,410.192C1730.98,319.193 1941.48,214.544 2124.53,123.545C2404.32,-15.55 2581.23,-301.068 2581.23,-613.526L2581.23,-968.682" style="fill:none;stroke:url(#_Linear1);stroke-width:2.42px;"/>
        </g>
    </g>
    <defs>
        <linearGradient id="_Linear1" x1="0" y1="0" x2="1" y2="0" gradientUnits="userSpaceOnUse" gradientTransform="matrix(2169.62,-1911.59,1911.59,2169.62,1280.81,1674.98)"><stop offset="0" style="stop-color:white;stop-opacity:0"/><stop offset="0.5" style="stop-color:white;stop-opacity:0.5"/><stop offset="1" style="stop-color:rgb(166,166,166);stop-opacity:0"/></linearGradient>
    </defs>
</svg>
