<?xml version="1.0" encoding="UTF-8" standalone="no"?>
<!DOCTYPE svg PUBLIC "-//W3C//DTD SVG 1.1//EN" "http://www.w3.org/Graphics/SVG/1.1/DTD/svg11.dtd">
<svg width="100%" height="100%" viewBox="0 0 1080 1080" version="1.1" xmlns="http://www.w3.org/2000/svg" xmlns:xlink="http://www.w3.org/1999/xlink" xml:space="preserve" xmlns:serif="http://www.serif.com/" style="fill-rule:evenodd;clip-rule:evenodd;stroke-linecap:round;stroke-linejoin:round;stroke-miterlimit:1.5;">
    <style>
    svg .svg-elem-1 {
      stroke-dashoffset: 5429.44970703125px;
      stroke-dasharray: 5429.44970703125px;
      animation: svg 2s cubic-bezier(0.47, 0, 0.745, 0.715) forwards;
      animation-delay: 1s;
    }
    @keyframes svg {
      from  { stroke-dashoffset: 5429.44970703125px; }
      to    { stroke-dashoffset: 0; }
    }
    </style>
    <path d="M724,139C724,139 711.952,134.993 655,139C598.048,143.007 303.238,191.524 236,326C227.951,342.097 241.503,358.807 258,366C274.497,373.193 239.622,356.82 181,413C157,436 233.637,502.082 310,472C343,459 226,484 191,540C175.468,564.852 143.041,622.585 153,651C162.624,678.46 208.926,676.029 356,621C547,549.536 181.422,658 193,773C198.638,829 260.364,814 332,814C340,814 306.614,834 302,864C294.264,914.3 399.318,936.698 450,923C487,913 639.082,878.529 666,878C692.918,877.471 517.694,944.722 477,961C470,963.8 407,1004.49 480,1016C506,1020.1 536,1014 536,1014C536,1014 523.5,1006 491,998C480.669,995.457 480.837,982.387 535,972C589.163,961.613 855.445,894.971 810,836C759.139,770 530,838 401,869C401,869 514.843,811.825 579,797C643.157,782.175 895.917,736.35 904,671C906.387,651.703 875.743,629.676 852,623C828.987,616.53 813.036,618.098 804,619.208C765,624 754,631 754,631C754,631 900,587 930,401C932.707,384.217 908.142,375 894,375C861,375 808,393 808,393C808,393 890,367 888,303C886.188,245 800,263 751,262C751,262 786.164,222.242 778,198C769.836,173.758 709.226,158.02 656,168C608,177 586,174 586,174C586,174 637,156 686,151C699.215,149.652 724,139 724,139Z" style="fill: none; stroke: rgb(255, 235, 59); stroke-width: 10px;" class="svg-elem-1"></path>
</svg>
