<?xml version="1.0" encoding="UTF-8" standalone="no"?>
<!DOCTYPE svg PUBLIC "-//W3C//DTD SVG 1.1//EN" "http://www.w3.org/Graphics/SVG/1.1/DTD/svg11.dtd">
<svg width="100%" height="100%" viewBox="0 0 300 300" version="1.1" xmlns="http://www.w3.org/2000/svg" xmlns:xlink="http://www.w3.org/1999/xlink" xml:space="preserve" xmlns:serif="http://www.serif.com/" style="fill-rule:evenodd;clip-rule:evenodd;stroke-linejoin:round;stroke-miterlimit:2;">
    <g transform="matrix(1.08865,0,0,0.903205,227.526,6.99296)">
        <g transform="matrix(1.11567,0,0,1.30255,-222.386,-32.4909)">
            <rect x="12" y="19" width="247" height="255" style="fill:rgb(11,15,27);"/>
        </g>
        <g id="Dark" transform="matrix(0.833334,0,0,0.833334,-11.8687,26.3886)">
            <rect x="-208.998" y="-7.742" width="275.57" height="332.15" style="fill:none;"/>
            <g transform="matrix(1.54274,0,0,1.85951,-1337.8,-122.14)">
                <path d="M843.362,225.531C843.363,225.529 843.364,225.528 843.366,225.526C853.08,211.029 853.08,192.101 843.366,177.604L821,144.23L798.634,177.604C788.92,192.101 788.92,211.029 798.634,225.526C798.636,225.528 798.637,225.529 798.638,225.531C803.636,232.989 812.023,237.464 821,237.464C829.977,237.464 838.364,232.989 843.362,225.531ZM835.055,219.965C831.914,224.652 826.643,227.465 821,227.465C815.357,227.465 810.086,224.652 806.945,219.965L806.941,219.959C799.483,208.83 799.483,194.299 806.941,183.17L821,162.191L835.059,183.17C842.517,194.299 842.517,208.83 835.059,219.959L835.055,219.965ZM834.28,154.66C834.28,154.66 836.543,157.539 839.999,161.54C842.652,164.609 845.723,168.139 848.897,171.449C851.148,173.797 853.331,175.907 855.186,177.592C855.991,178.323 856.727,178.963 857.358,179.498C857.566,180.495 857.845,181.712 858.207,183.083C858.941,185.857 860.028,189.111 861.24,192.633C862.348,195.854 863.528,198.995 864.754,202.107C867.887,210.061 870.644,216.22 870.644,216.22C870.644,216.22 871.366,209.51 871.892,200.978C872.098,197.64 872.251,194.287 872.311,190.882C872.377,187.158 872.407,183.727 872.249,180.862C872.03,176.902 871.56,174.284 871.56,174.284C871.263,172.405 870.259,170.711 868.753,169.548C868.753,169.548 866.917,168.098 863.991,166.19C861.892,164.821 859.298,163.243 856.458,161.658C852.452,159.424 848.261,157.345 844.621,155.556C839.876,153.223 836.518,151.761 836.518,151.761L835.069,150.642L832.831,153.541L834.28,154.66ZM805.482,151.761C805.482,151.761 802.124,153.223 797.379,155.556C793.739,157.345 789.548,159.424 785.542,161.658C782.702,163.243 780.108,164.821 778.009,166.19C775.083,168.098 773.247,169.548 773.247,169.548C771.741,170.711 770.737,172.405 770.44,174.284C770.44,174.284 769.97,176.902 769.751,180.862C769.593,183.727 769.623,187.158 769.689,190.882C769.749,194.287 769.902,197.64 770.108,200.978C770.634,209.51 771.356,216.22 771.356,216.22C771.356,216.22 774.113,210.061 777.246,202.107C778.472,198.995 779.652,195.854 780.76,192.633C781.972,189.111 783.059,185.857 783.793,183.083C784.155,181.712 784.434,180.495 784.643,179.497C785.273,178.963 786.009,178.323 786.814,177.592C788.669,175.907 790.852,173.797 793.103,171.449C796.277,168.139 799.348,164.609 802.001,161.54C805.457,157.539 807.72,154.66 807.72,154.66L809.169,153.541L806.931,150.642L805.482,151.761ZM806.308,144.49C806.308,144.49 797.396,143.92 788.122,143.868C784.249,143.846 780.477,143.942 777.311,144.115C773.096,144.343 770.176,144.728 770.176,144.728C769.272,144.874 768.404,145.187 767.615,145.652C767.615,145.652 764.507,147.293 760.374,150.101C758.251,151.544 755.958,153.331 753.531,155.225C750.813,157.345 748.115,159.546 745.527,161.728C738.949,167.274 733.812,171.977 733.812,171.977L732.234,172.905L734.092,176.061L735.67,175.133C735.67,175.133 742.275,172.926 750.318,169.868C753.481,168.666 756.716,167.375 759.889,166.028C762.723,164.826 765.399,163.689 767.691,162.534C770.673,161.03 772.977,159.674 774.177,158.939C775.415,158.664 777.282,158.223 779.499,157.617C782.557,156.78 786.167,155.681 789.835,154.437C798.617,151.459 806.894,148.104 806.894,148.104L808.701,147.812L808.116,144.197L806.308,144.49ZM835.106,148.104C835.106,148.104 843.383,151.459 852.165,154.437C855.833,155.681 859.443,156.78 862.501,157.617C864.718,158.223 866.584,158.664 867.826,158.941C869.025,159.675 871.328,161.031 874.309,162.534C876.601,163.689 879.277,164.826 882.111,166.028C885.284,167.375 888.519,168.666 891.682,169.868C899.725,172.926 906.33,175.133 906.33,175.133L907.908,176.061L909.766,172.905L908.188,171.977C908.188,171.977 903.051,167.274 896.473,161.728C893.885,159.546 891.187,157.345 888.469,155.225C886.042,153.331 883.749,151.544 881.626,150.101C877.493,147.293 874.385,145.652 874.385,145.652C873.596,145.187 872.728,144.874 871.824,144.728C871.824,144.728 868.904,144.343 864.689,144.115C861.523,143.942 857.751,143.846 853.878,143.868C844.604,143.92 835.692,144.49 835.692,144.49L833.884,144.197L833.299,147.812L835.106,148.104ZM835.843,141.637C835.843,141.637 847.54,141.415 857.989,140.606C860.052,140.447 861.996,140.228 863.808,139.975C868.804,139.278 872.409,138.504 872.409,138.504C872.87,138.392 873.319,138.237 873.75,138.04C873.75,138.04 876.15,137.038 879.551,135.18C881.991,133.847 884.858,132.07 887.911,130.146C890.687,128.396 893.445,126.565 896.104,124.744C902.862,120.117 908.174,116.163 908.174,116.163L909.885,115.381L908.322,111.959L906.611,112.741C906.611,112.741 900.144,114.17 892.222,116.249C889.105,117.068 885.916,117.954 882.776,118.908C879.322,119.956 876.103,120.96 873.498,121.933C870.781,122.947 868.793,123.851 867.965,124.241C866.621,124.63 863.885,125.455 860.563,126.623C858.837,127.23 857.009,127.928 855.103,128.733C845.448,132.81 834.954,137.981 834.954,137.981L833.127,138.426L834.015,142.081L835.843,141.637ZM807.046,137.981C807.046,137.981 796.552,132.81 786.897,128.733C784.991,127.928 783.163,127.23 781.437,126.623C778.119,125.456 775.384,124.632 774.033,124.24C773.212,123.853 771.223,122.948 768.502,121.933C765.897,120.96 762.678,119.956 759.224,118.908C756.084,117.954 752.895,117.068 749.778,116.249C741.856,114.17 735.389,112.741 735.389,112.741L733.678,111.959L732.115,115.381L733.826,116.163C733.826,116.163 739.138,120.117 745.896,124.744C748.555,126.565 751.313,128.396 754.089,130.146C757.142,132.07 760.009,133.847 762.449,135.18C765.85,137.038 768.25,138.04 768.25,138.04C768.681,138.237 769.13,138.392 769.591,138.504C769.591,138.504 773.196,139.278 778.192,139.975C780.004,140.228 781.948,140.447 784.011,140.606C794.46,141.415 806.157,141.637 806.157,141.637L807.985,142.081L808.873,138.426L807.046,137.981ZM800.56,112.042L821,138.014L841.44,112.042C846.489,105.626 846.489,96.587 841.44,90.172L821,64.2L800.56,90.172C795.511,96.587 795.511,105.626 800.56,112.042ZM836.45,133.754C836.45,133.754 845.22,130.288 852.896,126.667C858.621,123.966 863.392,121.274 863.392,121.274C864.813,120.278 865.818,118.794 866.217,117.105C866.217,117.105 867.723,113.296 868.888,107.613C869.484,104.702 869.868,101.343 870.171,97.792C870.516,93.753 870.576,89.739 870.655,85.759C870.856,75.589 870.644,67.535 870.644,67.535C870.644,67.535 866.854,74.645 862.487,83.832C860.779,87.427 859.038,91.045 857.54,94.812C856.224,98.123 855.065,101.299 854.298,104.169C853.411,107.484 852.924,110.265 852.675,111.985C851.07,113.436 848.887,115.461 846.619,117.713C840.598,123.694 834.348,130.756 834.348,130.756L832.848,131.807L834.95,134.805L836.45,133.754ZM807.652,130.756C807.652,130.756 801.402,123.694 795.381,117.713C793.113,115.461 790.93,113.436 789.325,111.984C789.076,110.265 788.589,107.483 787.702,104.169C786.935,101.299 785.776,98.123 784.46,94.812C782.962,91.045 781.221,87.427 779.513,83.832C775.146,74.645 771.356,67.535 771.356,67.535C771.356,67.535 771.144,75.589 771.345,85.759C771.424,89.739 771.484,93.753 771.829,97.792C772.132,101.343 772.516,104.702 773.112,107.613C774.277,113.296 775.783,117.105 775.783,117.105C776.182,118.794 777.187,120.278 778.608,121.274C778.608,121.274 783.379,123.966 789.104,126.667C796.78,130.288 805.55,133.754 805.55,133.754L807.05,134.805L809.152,131.807L807.652,130.756ZM821,121.846L808.418,105.858C806.224,103.07 806.224,99.143 808.418,96.356C808.418,96.355 821,80.368 821,80.368L833.582,96.356C835.776,99.143 835.776,103.07 833.582,105.858L821,121.846Z" style="fill:white;fill-rule:nonzero;"/>
            </g>
        </g>
    </g>
</svg>
